<svg id="visual" viewBox="0 0 900 600" width="900" height="600" xmlns="http://www.w3.org/2000/svg" xmlns:xlink="http://www.w3.org/1999/xlink" version="1.1"><path d="M0 399L21.5 409.5C43 420 86 441 128.8 433.8C171.7 426.7 214.3 391.3 257.2 390.8C300 390.3 343 424.7 385.8 430.5C428.7 436.3 471.3 413.7 514.2 399C557 384.3 600 377.7 642.8 387.7C685.7 397.7 728.3 424.3 771.2 428.5C814 432.7 857 414.3 878.5 405.2L900 396L900 601L878.5 601C857 601 814 601 771.2 601C728.3 601 685.7 601 642.8 601C600 601 557 601 514.2 601C471.3 601 428.7 601 385.8 601C343 601 300 601 257.2 601C214.3 601 171.7 601 128.8 601C86 601 43 601 21.5 601L0 601Z" fill="#a294f9"></path><path d="M0 481L21.5 481.3C43 481.7 86 482.3 128.8 484C171.7 485.7 214.3 488.3 257.2 480.5C300 472.7 343 454.3 385.8 453.7C428.7 453 471.3 470 514.2 474.7C557 479.3 600 471.7 642.8 465C685.7 458.3 728.3 452.7 771.2 448C814 443.3 857 439.7 878.5 437.8L900 436L900 601L878.5 601C857 601 814 601 771.2 601C728.3 601 685.7 601 642.8 601C600 601 557 601 514.2 601C471.3 601 428.7 601 385.8 601C343 601 300 601 257.2 601C214.3 601 171.7 601 128.8 601C86 601 43 601 21.5 601L0 601Z" fill="#c55eb9"></path><path d="M0 501L21.5 504.2C43 507.3 86 513.7 128.8 511.7C171.7 509.7 214.3 499.3 257.2 500C300 500.7 343 512.3 385.8 516.5C428.7 520.7 471.3 517.3 514.2 515.3C557 513.3 600 512.7 642.8 513.8C685.7 515 728.3 518 771.2 522.2C814 526.3 857 531.7 878.5 534.3L900 537L900 601L878.5 601C857 601 814 601 771.2 601C728.3 601 685.7 601 642.8 601C600 601 557 601 514.2 601C471.3 601 428.7 601 385.8 601C343 601 300 601 257.2 601C214.3 601 171.7 601 128.8 601C86 601 43 601 21.5 601L0 601Z" fill="#c62368"></path></svg>